<svg version="1.1" id="Layer_1" xmlns="http://www.w3.org/2000/svg" xmlns:xlink="http://www.w3.org/1999/xlink" x="0px" y="0px"
	 width="100%" viewBox="0 0 120 110" enable-background="new 0 0 120 110" xml:space="preserve">
<path fill="#1a365d" opacity="1.000000" stroke="none"
	d="
M121.000000,63.000000
	C121.000000,78.984505 121.000000,94.969002 121.000000,110.976753 
	C81.054253,110.976753 41.108486,110.976753 1.081360,110.976753 
	C1.081360,74.423248 1.081360,37.846256 1.081360,1.134632 
	C40.999718,1.134632 80.999786,1.134632 121.000000,1.134632 
	C121.000000,18.763577 121.000000,36.413128 120.734116,54.867386 
	C116.750000,51.381340 112.486801,50.636452 107.463890,53.501869 
	C107.165421,53.178764 107.041290,53.053967 106.961273,52.552876 
	C109.944542,47.794605 109.540466,45.550152 104.831909,41.007336 
	C99.572678,49.595078 94.463646,58.212421 89.007607,66.604149 
	C87.973404,68.194817 85.563622,69.819511 83.787148,69.821060 
	C78.910553,69.825317 77.452164,72.863701 75.841362,76.807335 
	C83.971252,77.219864 91.693680,77.313332 99.345139,78.098442 
	C105.024940,78.681236 108.487495,76.783295 110.901230,71.611565 
	C113.078133,66.947266 116.426582,64.579865 121.000000,63.000000 
M32.457500,98.960022 
	C36.816364,103.882187 43.515301,103.410980 45.492363,97.928703 
	C47.029766,93.665550 45.167362,90.806404 41.340485,88.693024 
	C36.013222,85.751053 34.442570,78.302338 38.281002,73.841507 
	C41.218071,79.507599 44.439796,84.918411 46.878582,90.661690 
	C49.160557,96.035683 52.751316,97.016403 58.264709,95.430573 
	C53.633812,86.538254 48.956219,77.865280 44.651405,69.011063 
	C43.857376,67.377892 43.928917,64.700829 44.726807,63.049618 
	C46.272144,59.851597 46.340519,57.078403 44.020775,54.515770 
	C43.531445,53.975201 41.277737,54.000172 40.959213,54.491737 
	C36.368462,61.576447 31.903091,68.746025 27.594212,76.005974 
	C26.919479,77.142815 26.558500,79.121689 27.087187,80.207275 
	C29.880180,85.942337 32.639317,91.618874 32.457500,98.960022 
M73.393372,24.132076 
	C71.277657,20.484816 69.089203,16.877251 67.069817,13.177411 
	C65.525597,10.348164 63.554260,8.795257 60.068375,8.922980 
	C55.574001,9.087657 51.166454,9.462409 46.823498,6.662210 
	C44.275265,5.019191 40.273754,4.834122 37.772831,8.497477 
	C35.346119,12.052131 35.778873,15.341660 38.698875,18.077431 
	C41.750923,20.936918 45.163815,20.622534 48.454350,18.069481 
	C53.926109,13.824065 60.370193,15.585192 62.537651,22.000025 
	C55.677242,22.000025 48.867210,21.982435 42.057323,22.005768 
	C36.901749,22.023432 34.687611,24.272923 34.371838,29.730326 
	C34.692245,29.810137 35.012486,29.958973 35.333080,29.959726 
	C44.974602,29.982445 54.618198,29.891911 64.255836,30.091333 
	C66.002502,30.127476 68.694931,30.874084 69.285194,32.096767 
	C71.480629,36.644428 74.965050,36.323490 79.673531,35.597363 
	C77.594299,31.752247 75.702736,28.254179 73.393372,24.132076 
M25.183527,33.267494 
	C21.641279,37.694363 19.956451,43.683140 13.341458,45.473480 
	C10.442727,46.258026 10.071245,52.789742 12.029626,55.542660 
	C14.306614,58.743454 17.831858,58.887592 20.441448,57.532387 
	C22.535759,56.444775 24.528769,53.342274 24.813374,50.927265 
	C25.705410,43.357895 30.023893,38.654449 36.676014,39.395859 
	C32.897678,45.325497 29.210678,51.226555 25.404305,57.049576 
	C22.286495,61.819221 22.578077,63.949104 27.289429,67.992203 
	C29.912556,64.104820 32.568226,60.256058 35.131420,56.346664 
	C37.795792,52.282951 40.125263,47.970188 43.091339,44.146553 
	C44.514061,42.312496 47.133995,40.129227 49.095112,40.236485 
	C54.430252,40.528282 55.503857,37.130787 57.035633,33.452045 
	C51.150337,32.948608 45.610420,32.222275 40.055275,32.076668 
	C35.319386,31.952534 30.565989,32.496281 25.183527,33.267494 
M80.461723,28.964102 
	C82.843803,33.026531 85.455193,36.978790 87.487633,41.209194 
	C88.231750,42.758038 88.196625,45.229664 87.489510,46.824894 
	C85.335228,51.684921 85.697784,53.722218 90.573883,57.144665 
	C94.087357,50.946148 96.938004,44.275078 101.251770,38.745419 
	C106.041611,32.605515 104.784492,27.723391 100.862709,22.206259 
	C99.889824,20.837610 99.369102,18.643127 99.641464,16.993505 
	C100.311028,12.938187 99.105583,9.832441 95.482170,8.298396 
	C91.183708,6.478557 87.851799,8.151607 85.950577,12.352283 
	C84.101280,16.438227 85.172333,18.795460 90.160316,21.617355 
	C95.744247,24.776402 97.414307,32.057690 93.325089,35.783543 
	C90.200127,30.089218 86.902588,24.505337 84.027779,18.711697 
	C81.590500,13.799837 77.916306,13.087792 72.760323,14.542314 
	C75.261124,19.273760 77.655464,23.803789 80.461723,28.964102 
M82.794304,81.990974 
	C78.046822,81.660400 73.275879,81.514557 68.562408,80.916077 
	C66.422112,80.644310 63.163563,80.023331 62.538132,78.616013 
	C60.245667,73.457581 56.545513,73.552933 51.566967,74.446297 
	C56.043221,82.583473 60.485291,90.271019 64.513168,98.169777 
	C66.142387,101.364716 68.284447,102.162865 71.587372,102.074036 
	C75.559868,101.967186 79.580200,101.141502 83.009560,105.018448 
	C84.256340,106.427956 88.540771,106.270004 90.783958,105.304596 
	C92.414055,104.603050 93.938042,101.305824 93.748863,99.334923 
	C93.524353,96.996017 91.885612,93.673706 89.994690,92.904716 
	C87.764496,91.997757 84.244362,92.674622 81.926018,93.890213 
	C76.441956,96.765701 70.609215,94.976501 68.604362,89.000786 
	C75.296631,89.000786 81.978935,88.534019 88.561707,89.143074 
	C94.198189,89.664574 96.288376,86.778481 98.094009,81.998291 
	C93.015640,81.998291 88.381523,81.998291 82.794304,81.990974 
z"/>
<path fill="#ffffff" opacity="1.000000" stroke="none"
	d="
M121.000000,62.555836
	C116.426582,64.579865 113.078133,66.947266 110.901230,71.611565 
	C108.487495,76.783295 105.024940,78.681236 99.345139,78.098442 
	C91.693680,77.313332 83.971252,77.219864 75.841362,76.807335 
	C77.452164,72.863701 78.910553,69.825317 83.787148,69.821060 
	C85.563622,69.819511 87.973404,68.194817 89.007607,66.604149 
	C94.463646,58.212421 99.572678,49.595078 104.831909,41.007336 
	C109.540466,45.550152 109.944542,47.794605 106.680573,52.666790 
	C106.018181,53.866959 105.680588,54.576912 105.081802,55.522705 
	C102.140564,60.287956 99.460510,64.817368 96.748962,69.400017 
	C100.798782,71.127029 102.728783,69.230743 104.912834,66.633286 
	C107.817001,63.179394 105.279892,59.524330 106.370773,55.959511 
	C106.980667,55.127678 107.309448,54.413925 107.638229,53.700172 
	C112.486801,50.636452 116.750000,51.381340 120.734116,55.336044 
	C121.000000,57.370556 121.000000,59.741116 121.000000,62.555836 
M116.443687,60.022568 
	C115.539543,58.474384 114.635399,56.926201 113.731255,55.378017 
	C112.557381,56.074104 110.944031,56.515057 110.345871,57.545383 
	C109.849388,58.400570 110.464569,60.999477 110.730896,61.020668 
	C112.440872,61.156704 114.190430,60.795074 116.443687,60.022568 
z"/>
<path fill="#ffffff" opacity="1.000000" stroke="none"
	d="
M32.256409,98.610214
	C32.639317,91.618874 29.880180,85.942337 27.087187,80.207275 
	C26.558500,79.121689 26.919479,77.142815 27.594212,76.005974 
	C31.903091,68.746025 36.368462,61.576447 40.959213,54.491737 
	C41.277737,54.000172 43.531445,53.975201 44.020775,54.515770 
	C46.340519,57.078403 46.272144,59.851597 44.726807,63.049618 
	C43.928917,64.700829 43.857376,67.377892 44.651405,69.011063 
	C48.956219,77.865280 53.633812,86.538254 58.264709,95.430573 
	C52.751316,97.016403 49.160557,96.035683 46.878582,90.661690 
	C44.439796,84.918411 41.218071,79.507599 38.281002,73.841507 
	C34.442570,78.302338 36.013222,85.751053 41.340485,88.693024 
	C45.167362,90.806404 47.029766,93.665550 45.492363,97.928703 
	C43.515301,103.410980 36.816364,103.882187 32.256409,98.610214 
M40.952412,92.475815 
	C39.028229,93.153221 37.104046,93.830627 35.179863,94.508034 
	C35.596886,95.643585 35.717560,97.117470 36.516365,97.817146 
	C37.277199,98.483566 39.619804,98.770401 39.759544,98.485283 
	C40.589977,96.790962 40.982639,94.882072 40.952412,92.475815 
z"/>
<path fill="#ffffff" opacity="1.000000" stroke="none"
	d="
M73.602264,24.444096
	C75.702736,28.254179 77.594299,31.752247 79.673531,35.597363 
	C74.965050,36.323490 71.480629,36.644428 69.285194,32.096767 
	C68.694931,30.874084 66.002502,30.127476 64.255836,30.091333 
	C54.618198,29.891911 44.974602,29.982445 35.333080,29.959726 
	C35.012486,29.958973 34.692245,29.810137 34.372345,29.728291 
	C34.687611,24.272923 36.901749,22.023432 42.057323,22.005768 
	C48.867210,21.982435 55.677242,22.000025 62.537651,22.000025 
	C60.370193,15.585192 53.926109,13.824065 48.454350,18.069481 
	C45.163815,20.622534 41.750923,20.936918 38.698875,18.077431 
	C35.778873,15.341660 35.346119,12.052131 37.772831,8.497477 
	C40.273754,4.834122 44.275265,5.019191 46.823498,6.662210 
	C51.166454,9.462409 55.574001,9.087657 60.068375,8.922980 
	C63.554260,8.795257 65.525597,10.348164 67.069817,13.177411 
	C69.089203,16.877251 71.277657,20.484816 73.602264,24.444096 
M46.984829,12.599674 
	C45.681248,11.412412 44.377666,10.225150 43.074085,9.037887 
	C42.055267,10.181303 40.244747,11.320989 40.239334,12.469181 
	C40.233879,13.627414 41.932259,15.615698 43.044640,15.734237 
	C44.242611,15.861895 45.626923,14.240903 46.984829,12.599674 
z"/>
<path fill="#ffffff" opacity="1.000000" stroke="none"
	d="
M25.501930,33.006035
	C30.565989,32.496281 35.319386,31.952534 40.055275,32.076668 
	C45.610420,32.222275 51.150337,32.948608 57.035633,33.452045 
	C55.503857,37.130787 54.430252,40.528282 49.095112,40.236485 
	C47.133995,40.129227 44.514061,42.312496 43.091339,44.146553 
	C40.125263,47.970188 37.795792,52.282951 35.131420,56.346664 
	C32.568226,60.256058 29.912556,64.104820 27.289429,67.992203 
	C22.578077,63.949104 22.286495,61.819221 25.404305,57.049576 
	C29.210678,51.226555 32.897678,45.325497 36.676014,39.395859 
	C30.023893,38.654449 25.705410,43.357895 24.813374,50.927265 
	C24.528769,53.342274 22.535759,56.444775 20.441448,57.532387 
	C17.831858,58.887592 14.306614,58.743454 12.029626,55.542660 
	C10.071245,52.789742 10.442727,46.258026 13.341458,45.473480 
	C19.956451,43.683140 21.641279,37.694363 25.501930,33.006035 
M15.051229,53.337826 
	C16.944004,55.219387 18.966299,55.006924 20.305586,52.980949 
	C20.936995,52.025803 20.935406,49.819141 20.247692,49.053577 
	C19.524433,48.248447 17.090635,47.838276 16.393030,48.427044 
	C15.417147,49.250671 15.356936,51.159241 15.051229,53.337826 
z"/>
<path fill="#ffffff" opacity="1.000000" stroke="none"
	d="
M80.255768,28.648960
	C77.655464,23.803789 75.261124,19.273760 72.760323,14.542314 
	C77.916306,13.087792 81.590500,13.799837 84.027779,18.711697 
	C86.902588,24.505337 90.200127,30.089218 93.325089,35.783543 
	C97.414307,32.057690 95.744247,24.776402 90.160316,21.617355 
	C85.172333,18.795460 84.101280,16.438227 85.950577,12.352283 
	C87.851799,8.151607 91.183708,6.478557 95.482170,8.298396 
	C99.105583,9.832441 100.311028,12.938187 99.641464,16.993505 
	C99.369102,18.643127 99.889824,20.837610 100.862709,22.206259 
	C104.784492,27.723391 106.041611,32.605515 101.251770,38.745419 
	C96.938004,44.275078 94.087357,50.946148 90.573883,57.144665 
	C85.697784,53.722218 85.335228,51.684921 87.489510,46.824894 
	C88.196625,45.229664 88.231750,42.758038 87.487633,41.209194 
	C85.455193,36.978790 82.843803,33.026531 80.255768,28.648960 
M90.886787,17.948801 
	C94.000099,18.241381 96.943672,17.963987 95.717285,13.755460 
	C95.374001,12.577461 92.693161,10.943184 91.731712,11.293615 
	C88.708832,12.395404 88.270157,14.871807 90.886787,17.948801 
z"/>
<path fill="#ffffff" opacity="1.000000" stroke="none"
	d="
M83.270859,81.994629
	C88.381523,81.998291 93.015640,81.998291 98.094009,81.998291 
	C96.288376,86.778481 94.198189,89.664574 88.561707,89.143074 
	C81.978935,88.534019 75.296631,89.000786 68.604362,89.000786 
	C70.609215,94.976501 76.441956,96.765701 81.926018,93.890213 
	C84.244362,92.674622 87.764496,91.997757 89.994690,92.904716 
	C91.885612,93.673706 93.524353,96.996017 93.748863,99.334923 
	C93.938042,101.305824 92.414055,104.603050 90.783958,105.304596 
	C88.540771,106.270004 84.256340,106.427956 83.009560,105.018448 
	C79.580200,101.141502 75.559868,101.967186 71.587372,102.074036 
	C68.284447,102.162865 66.142387,101.364716 64.513168,98.169777 
	C60.485291,90.271019 56.043221,82.583473 51.566967,74.446297 
	C56.545513,73.552933 60.245667,73.457581 62.538132,78.616013 
	C63.163563,80.023331 66.422112,80.644310 68.562408,80.916077 
	C73.275879,81.514557 78.046822,81.660400 83.270859,81.994629 
M87.255768,96.006577 
	C86.182007,97.083549 84.660156,98.002884 84.204735,99.297394 
	C83.937187,100.057869 85.155449,102.019676 86.086624,102.342918 
	C87.132881,102.706100 88.608612,101.832092 89.897499,101.496307 
	C89.281113,99.676598 88.664719,97.856895 87.255768,96.006577 
z"/>
<path fill="#1a365d" opacity="1.000000" stroke="none"
	d="
M106.089668,56.077591
	C105.279892,59.524330 107.817001,63.179394 104.912834,66.633286 
	C102.728783,69.230743 100.798782,71.127029 96.748962,69.400017 
	C99.460510,64.817368 102.140564,60.287956 105.263031,55.725529 
	C105.833527,55.820877 105.961601,55.949234 106.089668,56.077591 
z"/>
<path fill="#1a365d" opacity="1.000000" stroke="none"
	d="
M116.185333,60.309765
	C114.190430,60.795074 112.440872,61.156704 110.730896,61.020668 
	C110.464569,60.999477 109.849388,58.400570 110.345871,57.545383 
	C110.944031,56.515057 112.557381,56.074104 113.731255,55.378017 
	C114.635399,56.926201 115.539543,58.474384 116.185333,60.309765 
z"/>
<path fill="#1a365d" opacity="1.000000" stroke="none"
	d="
M105.524223,55.489693
	C105.680588,54.576912 106.018181,53.866959 106.636459,53.043087 
	C107.041290,53.053967 107.165421,53.178764 107.463890,53.501869 
	C107.309448,54.413925 106.980667,55.127678 106.370773,55.959511 
	C105.961601,55.949234 105.833527,55.820877 105.524223,55.489693 
z"/>
<path fill="#1a365d" opacity="1.000000" stroke="none"
	d="
M41.237396,92.760544
	C40.982639,94.882072 40.589977,96.790962 39.759544,98.485283 
	C39.619804,98.770401 37.277199,98.483566 36.516365,97.817146 
	C35.717560,97.117470 35.596886,95.643585 35.179863,94.508034 
	C37.104046,93.830627 39.028229,93.153221 41.237396,92.760544 
z"/>
<path fill="#1a365d" opacity="1.000000" stroke="none"
	d="
M46.957382,12.991249
	C45.626923,14.240903 44.242611,15.861895 43.044640,15.734237 
	C41.932259,15.615698 40.233879,13.627414 40.239334,12.469181 
	C40.244747,11.320989 42.055267,10.181303 43.074085,9.037888 
	C44.377666,10.225150 45.681248,11.412412 46.957382,12.991249 
z"/>
<path fill="#1a365d" opacity="1.000000" stroke="none"
	d="
M14.978100,52.970730
	C15.356936,51.159241 15.417147,49.250671 16.393030,48.427044 
	C17.090635,47.838276 19.524433,48.248447 20.247692,49.053577 
	C20.935406,49.819141 20.936995,52.025803 20.305586,52.980949 
	C18.966299,55.006924 16.944004,55.219387 14.978100,52.970730 
z"/>
<path fill="#1a365d" opacity="1.000000" stroke="none"
	d="
M90.519508,17.769001
	C88.270157,14.871807 88.708832,12.395404 91.731712,11.293615 
	C92.693161,10.943184 95.374001,12.577461 95.717285,13.755460 
	C96.943672,17.963987 94.000099,18.241381 90.519508,17.769001 
z"/>
<path fill="#1a365d" opacity="1.000000" stroke="none"
	d="
M87.652054,96.021881
	C88.664719,97.856895 89.281113,99.676598 89.897499,101.496307 
	C88.608612,101.832092 87.132881,102.706100 86.086624,102.342918 
	C85.155449,102.019676 83.937187,100.057869 84.204735,99.297394 
	C84.660156,98.002884 86.182007,97.083549 87.652054,96.021881 
z"/>
</svg>